<svg width="80" height="80" viewBox="0 0 80 80" fill="none" xmlns="http://www.w3.org/2000/svg">
                         <g clip-path="url(#clip0_2814_218179)">
                         <path d="M36.8201 41.2549V48.7703C37.5298 48.4925 38.1554 48.0356 38.6359 47.444C39.1164 46.8525 39.4354 46.1465 39.5618 45.3949C39.8727 43.5439 39.064 42.0574 36.8201 41.2549Z" fill="#01D676"></path>
                         <path d="M31.8537 33.4176C31.5243 35.1646 32.3448 35.8015 33.6939 36.5441V31.0537C33.2161 31.2655 32.7981 31.5921 32.477 32.0046C32.1559 32.417 31.9418 32.9024 31.8537 33.4176Z" fill="#01D676"></path>
                         <path d="M35.3925 21.877C31.8077 21.877 28.3034 22.94 25.3228 24.9316C22.3421 26.9232 20.019 29.7539 18.6471 33.0658C17.2753 36.3777 16.9164 40.0221 17.6157 43.538C18.3151 47.0539 20.0413 50.2834 22.5762 52.8183C25.111 55.3531 28.3405 57.0793 31.8565 57.7787C35.3724 58.478 39.0167 58.1191 42.3286 56.7473C45.6405 55.3754 48.4712 53.0523 50.4628 50.0717C52.4544 47.091 53.5175 43.5867 53.5175 40.0019C53.5119 35.1966 51.6006 30.5896 48.2027 27.1917C44.8048 23.7938 40.1978 21.8825 35.3925 21.877ZM42.6428 45.9138C42.403 47.4023 41.7184 48.7833 40.6791 49.8754C39.6397 50.9676 38.2942 51.7196 36.8195 52.0328V53.7519C36.8195 54.1663 36.6548 54.5638 36.3618 54.8568C36.0688 55.1498 35.6714 55.3144 35.257 55.3144C34.8426 55.3144 34.4451 55.1498 34.1521 54.8568C33.8591 54.5638 33.6945 54.1663 33.6945 53.7519V52.1537C31.9112 52.0684 30.1918 51.4632 28.7482 50.4127C28.4015 50.1858 28.1591 49.8304 28.0744 49.4247C27.9897 49.0191 28.0696 48.5964 28.2966 48.2496C28.5235 47.9029 28.8789 47.6605 29.2846 47.5758C29.6902 47.4911 30.1129 47.571 30.4596 47.798C31.3959 48.5126 32.5199 48.9395 33.6945 49.0265V40.0234C30.2845 38.4997 28.0527 36.7123 28.7836 32.8383C28.9952 31.5996 29.5781 30.4545 30.4551 29.5545C31.3321 28.6546 32.4617 28.0423 33.6945 27.7987V26.252C33.6945 25.8376 33.8591 25.4401 34.1521 25.1471C34.4452 24.8541 34.8426 24.6895 35.257 24.6895C35.6714 24.6895 36.0688 24.8541 36.3619 25.1471C36.6549 25.4401 36.8195 25.8376 36.8195 26.252V27.6759C38.2511 27.8883 39.5965 28.4915 40.7074 29.4191C41.0103 29.6993 41.19 30.088 41.2073 30.5003C41.2246 30.9126 41.0782 31.315 40.7999 31.6196C40.5216 31.9243 40.134 32.1065 39.7219 32.1265C39.3097 32.1464 38.9064 32.0025 38.5999 31.7262C38.0734 31.3186 37.4667 31.0269 36.8195 30.8703V37.928C37.2577 38.0934 37.6968 38.2535 38.1263 38.4053C39.672 38.8804 40.9879 39.9095 41.8215 41.2952C42.655 42.6809 42.9475 44.3257 42.6428 45.9138Z" fill="#01D676"></path>
                         <path d="M32.2675 77.5009V65.6259H2.5C2.00272 65.6259 1.52581 65.4284 1.17417 65.0767C0.822544 64.7251 0.625 64.2482 0.625 63.7509C0.625 63.2536 0.822544 62.7767 1.17417 62.4251C1.52581 62.0735 2.00272 61.8759 2.5 61.8759H34.1425C34.3887 61.8759 34.6326 61.9244 34.8601 62.0186C35.0876 62.1128 35.2943 62.2509 35.4684 62.425C35.6425 62.5991 35.7806 62.8058 35.8748 63.0333C35.9691 63.2608 36.0175 63.5047 36.0175 63.7509V73.4L74.6338 40.0009L36.0175 6.60189V16.2509C36.0175 16.4972 35.969 16.741 35.8748 16.9685C35.7806 17.196 35.6425 17.4027 35.4684 17.5768C35.2943 17.751 35.0875 17.8891 34.86 17.9833C34.6325 18.0775 34.3887 18.126 34.1425 18.1259H2.5C2.00272 18.1259 1.52581 17.9284 1.17417 17.5768C0.822544 17.2251 0.625 16.7482 0.625 16.2509C0.625 15.7537 0.822544 15.2767 1.17417 14.9251C1.52581 14.5735 2.00272 14.3759 2.5 14.3759H32.2675V2.50094C32.2679 2.1418 32.3714 1.79034 32.5657 1.48828C32.76 1.18622 33.0368 0.946265 33.3634 0.796907C33.69 0.647549 34.0527 0.595065 34.4082 0.645687C34.7638 0.696309 35.0973 0.847912 35.3693 1.08249L78.7267 38.5825C78.9301 38.7587 79.0932 38.9765 79.2049 39.2212C79.3167 39.466 79.3746 39.7319 79.3746 40.0009C79.3746 40.27 79.3167 40.5359 79.2049 40.7806C79.0932 41.0254 78.9301 41.2432 78.7267 41.4194L35.3693 78.9194C35.0972 79.1537 34.7637 79.3051 34.4082 79.3556C34.0528 79.4061 33.6903 79.3536 33.3637 79.2043C33.0372 79.055 32.7604 78.8151 32.5661 78.5132C32.3717 78.2113 32.2681 77.86 32.2675 77.5009Z" fill="#01D676"></path>
                         <path d="M16.4581 26.043H7.5C7.00272 26.043 6.52581 25.8454 6.17417 25.4938C5.82254 25.1422 5.625 24.6652 5.625 24.168C5.625 23.6707 5.82254 23.1938 6.17417 22.8421C6.52581 22.4905 7.00272 22.293 7.5 22.293H16.4581C16.9554 22.293 17.4323 22.4905 17.784 22.8421C18.1356 23.1938 18.3331 23.6707 18.3331 24.168C18.3331 24.6652 18.1356 25.1422 17.784 25.4938C17.4323 25.8454 16.9554 26.043 16.4581 26.043Z" fill="#01D676"></path>
                         <path d="M11.6321 33.96H5C4.50272 33.96 4.02581 33.7624 3.67417 33.4108C3.32254 33.0592 3.125 32.5822 3.125 32.085C3.125 31.5877 3.32254 31.1108 3.67417 30.7591C4.02581 30.4075 4.50272 30.21 5 30.21H11.6321C12.1294 30.21 12.6063 30.4075 12.9579 30.7591C13.3095 31.1108 13.5071 31.5877 13.5071 32.085C13.5071 32.5822 13.3095 33.0592 12.9579 33.4108C12.6063 33.7624 12.1294 33.96 11.6321 33.96Z" fill="#01D676"></path>
                         <path d="M16.4581 57.71H7.5C7.00272 57.71 6.52581 57.5124 6.17417 57.1608C5.82254 56.8092 5.625 56.3322 5.625 55.835C5.625 55.3377 5.82254 54.8608 6.17417 54.5091C6.52581 54.1575 7.00272 53.96 7.5 53.96H16.4581C16.9554 53.96 17.4323 54.1575 17.784 54.5091C18.1356 54.8608 18.3331 55.3377 18.3331 55.835C18.3331 56.3322 18.1356 56.8092 17.784 57.1608C17.4323 57.5124 16.9554 57.71 16.4581 57.71Z" fill="#01D676"></path>
                         <path d="M11.6321 49.793H5C4.50272 49.793 4.02581 49.5954 3.67417 49.2438C3.32254 48.8922 3.125 48.4152 3.125 47.918C3.125 47.4207 3.32254 46.9438 3.67417 46.5921C4.02581 46.2405 4.50272 46.043 5 46.043H11.6321C12.1294 46.043 12.6063 46.2405 12.9579 46.5921C13.3095 46.9438 13.5071 47.4207 13.5071 47.918C13.5071 48.4152 13.3095 48.8922 12.9579 49.2438C12.6063 49.5954 12.1294 49.793 11.6321 49.793Z" fill="#01D676"></path>
                         <path d="M10.3925 41.877H2.5C2.00272 41.877 1.52581 41.6794 1.17417 41.3278C0.822544 40.9761 0.625 40.4992 0.625 40.002C0.625 39.5047 0.822544 39.0278 1.17417 38.6761C1.52581 38.3245 2.00272 38.127 2.5 38.127H10.3925C10.8898 38.127 11.3667 38.3245 11.7183 38.6761C12.07 39.0278 12.2675 39.5047 12.2675 40.002C12.2675 40.4992 12.07 40.9761 11.7183 41.3278C11.3667 41.6794 10.8898 41.877 10.3925 41.877Z" fill="#01D676"></path>
                         </g>
                         <defs>
                         <clipPath id="clip0_2814_218179">
                         <rect width="80" height="80" fill="white"></rect>
                         </clipPath>
                         </defs>
                       </svg>