<svg width="80" height="80" viewBox="0 0 80 80" fill="none" xmlns="http://www.w3.org/2000/svg">
                         <path d="M71.25 43.75V22.5H66.25V43.75H62.5L68.75 51.25L75 43.75H71.25Z" fill="#01D676"></path>
                         <path d="M13.75 26.25V5H8.75V26.25H5L11.25 33.75L17.5 26.25H13.75Z" fill="#01D676"></path>
                         <path d="M56.25 5H26.25V33.825C27.2213 33.92 28.178 34.1298 29.1 34.45C29.5186 33.3612 30.3054 32.4534 31.3236 31.8843C32.3419 31.3152 33.5273 31.1207 34.674 31.3346C35.8207 31.5485 36.8563 32.1573 37.6009 33.0552C38.3455 33.9531 38.752 35.0835 38.75 36.25V44.7625L38.85 45H45.0625C45.3535 42.132 46.6257 39.4525 48.6641 37.4141C50.7025 35.3757 53.382 34.1035 56.25 33.8125V5ZM41.25 25C39.5194 25 37.8277 24.4868 36.3888 23.5254C34.9498 22.5639 33.8283 21.1973 33.166 19.5985C32.5038 17.9996 32.3305 16.2403 32.6681 14.543C33.0057 12.8456 33.8391 11.2865 35.0628 10.0628C36.2865 8.83911 37.8456 8.00575 39.543 7.66813C41.2403 7.33051 42.9996 7.50379 44.5985 8.16605C46.1973 8.82832 47.5639 9.94983 48.5254 11.3888C49.4868 12.8277 50 14.5194 50 16.25C49.9973 18.5698 49.0746 20.7939 47.4343 22.4343C45.7939 24.0746 43.5698 24.9974 41.25 25Z" fill="#01D676"></path>
                         <path d="M41.25 22.5C44.7018 22.5 47.5 19.7018 47.5 16.25C47.5 12.7982 44.7018 10 41.25 10C37.7982 10 35 12.7982 35 16.25C35 19.7018 37.7982 22.5 41.25 22.5Z" fill="#01D676"></path>
                         <path d="M56.2504 45V36.3375C54.0504 36.6165 52.0055 37.6189 50.4374 39.187C48.8693 40.7551 47.8669 42.8 47.5879 45H56.2504Z" fill="#01D676"></path>
                         <path d="M61.25 5H58.75V10H61.25C61.9115 9.99509 62.5446 9.73012 63.0123 9.26234C63.4801 8.79456 63.7451 8.16152 63.75 7.5C63.748 6.83757 63.484 6.20283 63.0156 5.73442C62.5472 5.26601 61.9124 5.00198 61.25 5Z" fill="#01D676"></path>
                         <path d="M17.5 67.5H37.5V75H17.5V67.5Z" fill="#01D676"></path>
                         <path d="M28.75 37C27.9504 36.6673 27.1094 36.4445 26.25 36.3375V45H28.75V37Z" fill="#01D676"></path>
                         <path d="M21.25 10H23.75V5H21.25C20.5885 5.00491 19.9554 5.26987 19.4877 5.73766C19.0199 6.20544 18.7549 6.83847 18.75 7.5C18.752 8.16243 19.016 8.79717 19.4844 9.26558C19.9528 9.73399 20.5876 9.99802 21.25 10Z" fill="#01D676"></path>
                         <path d="M23.7494 46.2499V28.2624L20.6244 33.6874C18.6117 37.1461 17.7658 41.1607 18.2119 45.1374L19.9869 61.1124C19.9972 61.1575 20.0014 61.2037 19.9994 61.2499V64.9999H34.9994C34.9994 64.7756 35.0599 64.5554 35.1744 64.3624L37.1369 61.0874C38.1945 59.3379 38.7522 57.3318 38.7494 55.2874V53.6624C38.7529 52.2311 38.4769 50.8129 37.9369 49.4874L36.3369 45.4624C36.2767 45.3158 36.2469 45.1584 36.2494 44.9999V36.2499C36.2445 35.5884 35.9795 34.9554 35.5117 34.4876C35.0439 34.0198 34.4109 33.7548 33.7494 33.7499C33.0869 33.7519 32.4522 34.0159 31.9838 34.4843C31.5154 34.9527 31.2513 35.5875 31.2494 36.2499V48.7499H28.7494V47.4999H24.9994C24.6678 47.4999 24.3499 47.3682 24.1155 47.1338C23.8811 46.8994 23.7494 46.5814 23.7494 46.2499Z" fill="#01D676"></path>
                       </svg>