<svg width="80" height="80" viewBox="0 0 80 80" fill="none" xmlns="http://www.w3.org/2000/svg">
                         <path d="M24.9976 10.584L28.4507 8.69398L31.6165 14.4781L28.1633 16.3681L24.9976 10.584Z" fill="#01D676"></path>
                         <path d="M48.3102 14.4971L51.4759 8.71298L54.9291 10.603L51.7634 16.3871L48.3102 14.4971Z" fill="#01D676"></path>
                         <path d="M37.9972 6.39941H41.9347V11.2721H37.9972V6.39941Z" fill="#01D676"></path>
                         <path d="M58.9966 18.2988L62.4415 14.8539L65.2254 17.6377L61.7804 21.0826L58.9966 18.2988Z" fill="#01D676"></path>
                         <path d="M14.9292 17.6328L17.713 14.849L21.158 18.294L18.3742 21.0778L14.9292 17.6328Z" fill="#01D676"></path>
                         <path d="M14.7656 33.0869H33.7969V38.0307H14.7656V33.0869Z" fill="#01D676"></path>
                         <path d="M46.1353 33.0869H65.1665V38.0307H46.1353V33.0869Z" fill="#01D676"></path>
                         <path d="M37.7344 33.0869H42.1969V38.0307H37.7344V33.0869Z" fill="#01D676"></path>
                         <path d="M37.7344 41.9678H42.1969V73.599H37.7344V41.9678Z" fill="#01D676"></path>
                         <path d="M46.1353 41.9688H62.5323V73.6H46.1353V41.9688Z" fill="#01D676"></path>
                         <path d="M49.9526 29.149C51.0685 28.0757 51.7639 26.5686 51.7639 24.8981C51.7633 21.5887 49.0265 18.9968 45.8648 18.999C42.6068 18.999 39.9658 21.64 39.9658 24.8981C39.9658 21.64 37.3248 18.999 34.0668 18.999C30.7573 18.9997 28.1654 21.7365 28.1677 24.8981C28.1681 26.5845 28.8799 28.0835 29.9954 29.149H49.9526Z" fill="#01D676"></path>
                         <path d="M17.3999 41.9678H33.797V73.599H17.3999V41.9678Z" fill="#01D676"></path>
                       </svg>